<svg xmlns="http://www.w3.org/2000/svg" width="1000" height="1000" viewBox="0 0 264.58333 264.58334">
	<style>
		path {
			fill: none;
			stroke: #ffffff;
			stroke-width: 0.1;
		}
	</style>
	<g transform="translate(0,-270.54165)">
		<g transform="matrix(2.3254075,0,0,2.3283204,309.83909,498.65608)">
			<path d="m -86.934439,-72.22605 h 21.166664"/>
			<path d="M -76.351106,-72.22605 V -91.27607"/>
			<path d="m -76.351106,-72.22605 -9.789583,-2.91044"/>
			<path d="m -76.351106,-72.22605 9.789581,-2.91044"/>
			<path d="m -76.351106,-72.22605 -8.73125,-6.08544"/>
			<path d="m -76.351106,-72.22605 8.73125,-6.08544"/>
			<path d="m -76.351106,-72.22605 -6.085417,-8.73127"/>
			<path d="m -76.351106,-72.22605 6.085417,-8.73127"/>
			<path d="m -76.351106,-72.22605 -2.910417,-10.58333"/>
			<path d="m -76.351106,-72.22605 2.910417,-10.58333"/>
			<path d="m -76.351106,-72.22605 -46.302254,38.36456"/>
			<path d="m -76.351106,-72.22605 -41.010584,42.33334"/>
			<path d="m -113.3928,-24.60105 37.041694,-47.625"/>
			<path d="m -109.42405,-20.6323 33.072944,-51.59375"/>
			<path d="m -104.13236,-16.66355 27.781254,-55.5625"/>
			<path d="m -99.634439,-12.6948 23.283333,-59.53125"/>
			<path d="M -94.871939,-8.7260503 -76.351106,-72.22605"/>
			<path d="M -90.374023,-4.7573003 -76.351106,-72.22605"/>
			<path d="M -85.611523,-0.7885503 -76.351106,-72.22605"/>
			<path d="m -81.113606,3.1801997 4.7625,-75.4062497"/>
			<path d="m -76.351106,-72.22605 46.302081,38.36456"/>
			<path d="m -76.351106,-72.22605 41.010414,42.33334"/>
			<path d="m -39.309442,-24.60105 -37.041664,-47.625"/>
			<path d="M -43.278192,-20.6323 -76.351106,-72.22605"/>
			<path d="m -48.569858,-16.66355 -27.781248,-55.5625"/>
			<path d="M -53.067775,-12.6948 -76.351106,-72.22605"/>
			<path d="M -57.830275,-8.7260503 -76.351106,-72.22605"/>
			<path d="M -62.328192,-4.7573003 -76.351106,-72.22605"/>
			<path d="M -67.090692,-0.7885503 -76.351106,-72.22605"/>
			<path d="m -71.588606,3.1801997 -4.7625,-75.4062497"/>
			<path d="m -76.351106,-72.22605 v 35.18956"/>
			<path d="M -76.351106,-29.89271 V 7.9426997"/>
			<path d="m -76.351106,7.9426997 -1.322917,1.5875 1.322917,1.5875003 1.322917,-1.5875003 z"/>
			<path d="m -76.351106,-94.45107 -1.322917,1.5875 1.322917,1.5875 1.322917,-1.5875 z"/>
			<path d="m -108.10111,-65.61149 c 0,0 0,32.01461 31.750004,32.01461 31.749998,0 31.749998,-32.01461 31.749998,-32.01461"/>
			<path d="m -76.351106,-37.03649 -2.38125,3.43961 2.38125,3.70417 2.38125,-3.70417 z" style="fill:white;"/>
			<circle r="0.79374999" cy="-33.596863" cx="-76.35099" id="path260"/>
			<path d="M -108.10111,-66.14063 V -66.6698"/>
			<path d="m -108.10111,-67.19896 v -0.52917"/>
			<path d="m -108.10111,-68.2573 v -0.52919"/>
			<path d="M -44.601108,-66.14063 V -66.6698"/>
			<path d="m -44.601108,-67.19896 v -0.52917"/>
			<path d="m -44.601108,-68.2573 v -0.52919"/>
			<path d="m -76.351135,-71.49156 -0.568651,0.82143 0.568651,0.88457 0.568677,-0.88457 z" style="fill:white;"/>
		</g>
	</g>
</svg>
