<svg xmlns="http://www.w3.org/2000/svg" version="1.1" width="24" height="24" viewBox="0 0 24 24">
	<path d="m8.906 2a7 7 0 0 0-6.906 7 7 7 0 0 0 3.006 5.748 7 7 0 0 0-0.005859 0.252 7 7 0 0 0 7 7 7 7 0 0 0 7-7 7 7 0 0 0-0.003906-0.1914 7 7 0 0 0 3.098-5.809 7 7 0 0 0-7-7 7 7 0 0 0-0.09375 0 7 7 0 0 0-2.953 0.6992 7 7 0 0 0-3.047-0.6992 7 7 0 0 0-0.09375 0zm0.09375 2a5 5 0 0 1 1.076 0.1172 7 7 0 0 0-1.982 4.883 7 7 0 0 0 0.003906 0.1895 7 7 0 0 0-2.645 3.334 5 5 0 0 1-1.453-3.523 5 5 0 0 1 5-5zm6.094 0a5 5 0 0 1 5 5 5 5 0 0 1-1.521 3.59 7 7 0 0 0-2.578-3.338 7 7 0 0 0 0.005859-0.252 7 7 0 0 0-1.984-4.883 5 5 0 0 1 0.001953 0 5 5 0 0 1 1.076-0.1172zm-3.047 1.037a5 5 0 0 1 1.9 3.24 7 7 0 0 0-1.947-0.2773 7 7 0 0 0-0.09375 0 7 7 0 0 0-1.756 0.248 5 5 0 0 1 1.896-3.211zm-0.04688 4.963a5 5 0 0 1 1.816 0.3418 5 5 0 0 1-1.77 2.621 5 5 0 0 1-1.777-2.652 5 5 0 0 1 1.73-0.3105zm-3.479 1.41a7 7 0 0 0 1.557 2.473 5 5 0 0 1-0.001953 0 5 5 0 0 1-1.076 0.1172 5 5 0 0 1-1.816-0.3418 5 5 0 0 1 1.338-2.248zm7.025 0.06641a5 5 0 0 1 1.277 2.213 5 5 0 0 1-1.73 0.3105 5 5 0 0 1-1.078-0.1191 7 7 0 0 0 1.531-2.404zm-3.5 3.824a7 7 0 0 0 3.047 0.6992 7 7 0 0 0 1.85-0.25 5 5 0 0 1-4.943 4.25 5 5 0 0 1-4.947-4.277 7 7 0 0 0 1.947 0.2773 7 7 0 0 0 3.047-0.6992z"/>
</svg>
